<?xml version="1.0" encoding="UTF-8" standalone="no"?>
<!DOCTYPE svg PUBLIC "-//W3C//DTD SVG 1.1//EN" "http://www.w3.org/Graphics/SVG/1.1/DTD/svg11.dtd">
<svg width="100%" height="100%" viewBox="0 0 17 17" version="1.1" xmlns="http://www.w3.org/2000/svg" xmlns:xlink="http://www.w3.org/1999/xlink" xml:space="preserve" xmlns:serif="http://www.serif.com/" style="fill-rule:evenodd;clip-rule:evenodd;stroke-linejoin:round;stroke-miterlimit:2;">
    <g transform="matrix(1,0,0,1,-1157.97,-46.5)">
        <g transform="matrix(0.0332681,0,0,0.0332681,1166.47,55)">
            <g transform="matrix(1,0,0,1,-255.5,-255.5)">
                <clipPath id="_clip1">
                    <rect x="0" y="0" width="511" height="511"/>
                </clipPath>
                <g clip-path="url(#_clip1)">
                    <path d="M498.225,221.263C498.209,221.251 498.197,221.235 498.186,221.224L289.738,12.784C280.853,3.895 269.04,-0.998 256.475,-0.998C243.909,-0.998 232.097,3.895 223.208,12.784L14.869,221.118C14.799,221.189 14.725,221.263 14.658,221.333C-3.587,239.684 -3.556,269.458 14.748,287.762C23.111,296.128 34.151,300.97 45.96,301.481C46.444,301.528 46.927,301.551 47.415,301.551L55.719,301.551L55.719,454.947C55.719,485.305 80.42,510.003 110.779,510.003L192.331,510.003C200.6,510.003 207.301,503.297 207.301,495.032L207.301,374.767C207.301,360.916 218.572,349.648 232.424,349.648L280.525,349.648C294.377,349.648 305.644,360.916 305.644,374.767L305.644,495.032C305.644,503.297 312.346,510.003 320.615,510.003L402.166,510.003C432.529,510.003 457.227,485.305 457.227,454.947L457.227,301.551L464.93,301.551C477.492,301.551 489.305,296.658 498.197,287.766C516.521,269.434 516.529,239.606 498.225,221.263ZM477.024,266.596C473.792,269.828 469.496,271.61 464.93,271.61L442.256,271.61C433.987,271.61 427.285,278.311 427.285,286.58L427.285,454.947C427.285,468.794 416.018,480.061 402.166,480.061L335.586,480.061L335.586,374.767C335.586,344.409 310.888,319.707 280.525,319.707L232.424,319.707C202.062,319.707 177.36,344.409 177.36,374.767L177.36,480.061L110.779,480.061C96.931,480.061 85.66,468.794 85.66,454.947L85.66,286.58C85.66,278.311 78.958,271.61 70.689,271.61L48.405,271.61C48.171,271.594 47.941,271.582 47.703,271.578C43.243,271.5 39.06,269.73 35.925,266.592C29.259,259.925 29.259,249.076 35.925,242.405C35.929,242.405 35.929,242.401 35.933,242.397L35.945,242.386L244.385,33.953C247.613,30.721 251.905,28.943 256.475,28.943C261.04,28.943 265.332,30.721 268.564,33.953L476.958,242.343C476.989,242.374 477.024,242.405 477.055,242.436C483.687,249.115 483.675,259.941 477.024,266.596Z" style="fill-rule:nonzero;"/>
                </g>
            </g>
        </g>
    </g>
</svg>
